<?xml version="1.0" encoding="UTF-8"?>
<svg width="70px" height="65px" viewBox="0 0 70 65" version="1.1" xmlns="http://www.w3.org/2000/svg" xmlns:xlink="http://www.w3.org/1999/xlink">
    <!-- Generator: Sketch 47 (45396) - http://www.bohemiancoding.com/sketch -->
    <title>icu-icon</title>
    <desc>Created with Sketch.</desc>
    <defs></defs>
    <g id="Page-1" stroke="none" stroke-width="1" fill="none" fill-rule="evenodd">
        <g id="icu-icon" fill-rule="nonzero" fill="#FFFFFF">
            <polygon id="Shape" points="36.1290323 4.19354839 33.8709677 4.19354839 33.8709677 6.29032258 31.6129032 6.29032258 31.6129032 8.38709677 33.8709677 8.38709677 33.8709677 10.483871 36.1290323 10.483871 36.1290323 8.38709677 38.3870968 8.38709677 38.3870968 6.29032258 36.1290323 6.29032258"></polygon>
            <path d="M38.3870968,20.967742 L38.3870968,16.7741935 L40.6451613,16.7741935 C41.8905148,16.7741935 42.9032258,15.833819 42.9032258,14.6774193 L42.9032258,13.6290323 L49.0732107,13.6290323 L52.2348318,18.031439 L56.538716,7.04077929 L59.0944745,12.5806452 L70,12.5806452 L70,10.483871 L60.5829449,10.483871 L56.3656124,1.34631748 L51.6372386,13.4201739 L50.281628,11.532258 L42.9032258,11.532258 L42.9032258,2.0967742 C42.9032258,0.940374528 41.8905148,0 40.6451613,0 L29.3548387,0 C28.1094852,0 27.0967742,0.940374528 27.0967742,2.0967742 L27.0967742,7.33870968 L17.3202809,7.33870968 L14.7634199,12.8785755 L10.4606383,1.88791583 L7.29901714,6.29032258 L0,6.29032258 L0,8.38709677 L8.50743448,8.38709677 L9.86194238,6.49918094 L14.5903162,18.5730373 L18.8087513,9.43548385 L27.0967742,9.43548385 L27.0967742,14.6774193 C27.0967742,15.833819 28.1094852,16.7741935 29.3548387,16.7741935 L31.6129032,16.7741935 L31.6129032,20.967742 L33.8709677,20.967742 L33.8709677,27.2580645 L28.2258065,27.2580645 C26.3073337,27.2580645 24.387207,27.6783408 22.6721586,28.4753811 L21.8887821,28.8388357 C21.1671497,26.7159542 19.0513169,25.1612903 16.5291867,25.1612903 L12.4193548,25.1612903 C11.1436808,25.1612903 9.97826361,25.5713284 9.03225806,26.2368085 L9.03225806,22.016129 C9.03225806,20.2822974 7.51236458,18.8709677 5.64516129,18.8709677 C3.777958,18.8709677 2.25806452,20.2822974 2.25806452,22.016129 L2.25806452,37.7419355 C1.01271103,37.7419355 0,38.68231 0,39.8387097 L0,41.9354838 C0,43.0918835 1.01271103,44.032258 2.25806452,44.032258 L5.64516129,44.032258 L5.64516129,55.5762901 C4.23056319,56.5647838 3.38709677,58.1035787 3.38709677,59.7580645 C3.38709677,62.6482958 5.91970129,65 9.03225806,65 C12.1448148,65 14.6774194,62.6482958 14.6774194,59.7580645 C14.6774194,58.1046024 13.8251324,56.5530101 12.4193548,55.5696352 L12.4193548,44.032258 L57.5806452,44.032258 L57.5806452,55.5696352 C56.1748676,56.5519862 55.3225806,58.1046024 55.3225806,59.7580645 C55.3225806,62.6482958 57.8551852,65 60.9677419,65 C64.0802987,65 66.6129032,62.6482958 66.6129032,59.7580645 C66.6129032,58.1046024 65.7606162,56.5530101 64.3548387,55.5696352 L64.3548387,44.032258 L67.7419355,44.032258 C68.987289,44.032258 70,43.0918835 70,41.9354838 L70,39.8387097 C70,38.68231 68.987289,37.7419355 67.7419355,37.7419355 L67.6846018,37.7419355 C67.1118164,31.8729131 61.7897083,27.2580645 55.3225806,27.2580645 L36.1290323,27.2580645 L36.1290323,20.967742 L38.3870968,20.967742 Z M12.4193548,27.2580645 L16.5291867,27.2580645 C18.3963898,27.2580645 19.9162834,28.6693942 19.9162834,30.4032258 C19.9162834,32.1370575 18.3963898,33.5483871 16.5291867,33.5483871 L12.4193548,33.5483871 C10.5521516,33.5483871 9.03225806,32.1370575 9.03225806,30.4032258 C9.03225806,28.6693942 10.5521516,27.2580645 12.4193548,27.2580645 Z M16.9354839,35.6451613 C18.4052104,35.6451613 19.6472562,36.5246189 20.1147461,37.7419355 L9.24009258,37.7419355 C9.7075825,36.5246189 10.9496283,35.6451613 12.4193548,35.6451613 L16.9354839,35.6451613 Z M9.03225806,34.5696431 C9.04493766,34.5788574 9.05486073,34.5885837 9.06698907,34.5967742 C9.05486073,34.6049647 9.04493766,34.614691 9.03225806,34.6239053 L9.03225806,34.5696431 Z M4.51612903,22.016129 C4.51612903,21.4386971 5.02220899,20.967742 5.64516129,20.967742 C6.26811359,20.967742 6.77419355,21.4386971 6.77419355,22.016129 L6.77419355,37.7419355 L4.51612903,37.7419355 L4.51612903,22.016129 Z M9.03225806,62.9032258 C7.16505478,62.9032258 5.64516129,61.4918961 5.64516129,59.7580645 C5.64516129,59.3971696 5.73336694,59.0547032 5.85850873,58.7245227 C6.32930629,59.9341607 7.56804435,60.8064516 9.03225806,60.8064516 C10.4953693,60.8064516 11.7341072,59.9351845 12.2060074,58.7255466 C12.3311492,59.0557271 12.4193548,59.3987052 12.4193548,59.7580645 C12.4193548,61.4918961 10.8994614,62.9032258 9.03225806,62.9032258 L9.03225806,62.9032258 Z M10.1612903,57.6612903 C10.1612903,58.2387223 9.65521036,58.7096775 9.03225806,58.7096775 C8.40930577,58.7096775 7.90322581,58.2387223 7.90322581,57.6612903 L7.90322581,44.032258 L10.1612903,44.032258 L10.1612903,57.6612903 Z M60.9677419,62.9032258 C59.1005386,62.9032258 57.5806452,61.4918961 57.5806452,59.7580645 C57.5806452,59.3987052 57.6688508,59.0557271 57.7939926,58.7255466 C58.2658928,59.9351845 59.5046307,60.8064516 60.9677419,60.8064516 C62.4308531,60.8064516 63.6695911,59.9351845 64.1414913,58.7255466 C64.2666331,59.0557271 64.3548387,59.3987052 64.3548387,59.7580645 C64.3548387,61.4918961 62.8349452,62.9032258 60.9677419,62.9032258 L60.9677419,62.9032258 Z M62.0967742,57.6612903 C62.0967742,58.2387223 61.5906942,58.7096775 60.9677419,58.7096775 C60.3447896,58.7096775 59.8387097,58.2387223 59.8387097,57.6612903 L59.8387097,44.032258 L62.0967742,44.032258 L62.0967742,57.6612903 Z M65.4171655,37.7419355 L60.9677419,37.7419355 L60.9677419,39.8387097 L67.7419355,39.8387097 L67.7419355,41.9354838 L2.25806452,41.9354838 L2.25806452,39.8387097 L58.7096774,39.8387097 L58.7096774,37.7419355 L22.4665291,37.7419355 C22.1660786,36.3736061 21.2900864,35.197754 20.0833229,34.4416661 C21.1671497,33.6174947 21.9075259,32.4370353 22.0999244,31.0855988 L23.6826645,30.3510111 C25.084583,29.6998644 26.6551947,29.3548387 28.2258065,29.3548387 L55.3225806,29.3548387 C60.5443548,29.3548387 64.8537519,33.0313603 65.4171655,37.7419355 Z M29.3548387,2.0967742 L40.6451613,2.0967742 L40.6462638,14.6774193 L29.3548387,14.6774193 L29.3548387,2.0967742 Z M36.1290323,16.7741935 L36.1290323,18.8709677 L33.8709677,18.8709677 L33.8709677,16.7741935 L36.1290323,16.7741935 Z" id="Shape"></path>
        </g>
    </g>
</svg>