<?xml version="1.0" encoding="UTF-8"?>
<svg width="48px" height="65px" viewBox="0 0 48 65" version="1.1" xmlns="http://www.w3.org/2000/svg" xmlns:xlink="http://www.w3.org/1999/xlink">
    <!-- Generator: Sketch 47 (45396) - http://www.bohemiancoding.com/sketch -->
    <title>doctor-icon</title>
    <desc>Created with Sketch.</desc>
    <defs></defs>
    <g id="Page-1" stroke="none" stroke-width="1" fill="none" fill-rule="evenodd">
        <g id="doctor-icon" fill-rule="nonzero" fill="#FFFFFF">
            <polygon id="Shape" points="22.9090909 8.38709678 25.0909091 8.38709678 25.0909091 6.81451613 26.7272727 6.81451613 26.7272727 4.71774193 25.0909091 4.71774193 25.0909091 3.14516129 22.9090909 3.14516129 22.9090909 4.71774193 21.2727273 4.71774193 21.2727273 6.81451613 22.9090909 6.81451613"></polygon>
            <path d="M32.7272727,41.9354838 L31.6363636,41.9354838 L31.6363636,39.8387097 L38.1818182,39.8387097 C41.1894545,39.8387097 43.6363636,37.4871774 43.6363636,34.5967742 L43.6363636,22.0161291 C43.6363636,16.6158871 40.9854545,11.6391936 36.4898182,8.48040322 L38.1556364,1.27588709 C38.2265455,0.965564514 38.148,0.641612903 37.9418182,0.392096774 C37.7345455,0.14467742 37.4225455,0 37.0909091,0 L10.9090909,0 C10.5774545,0 10.2654545,0.14467742 10.0581818,0.392096774 C9.852,0.640564516 9.77236364,0.965564514 9.84436364,1.27588709 L11.5101818,8.48040322 C7.01454545,11.6391936 4.36363636,16.6158871 4.36363636,22.0161291 L4.36363636,34.5967742 C4.36363636,37.4871774 6.81054545,39.8387097 9.81818182,39.8387097 L16.3636364,39.8387097 L16.3636364,41.9354838 L15.2727273,41.9354838 C6.85090909,41.9354838 0,48.5193549 0,56.6129033 L0,63.9516129 C0,64.5313709 0.487636364,65 1.09090909,65 L46.9090909,65 C47.5123636,65 48,64.5313709 48,63.9516129 L48,56.6129033 C48,48.5193549 41.1490909,41.9354838 32.7272727,41.9354838 Z M32.7272727,44.032258 L32.7294545,44.032258 L32.7294545,46.5588709 C32.7294545,47.5611291 32.3345455,48.5403226 31.6461818,49.242742 C30.3501818,50.564758 28.296,50.6821774 26.9367273,49.5771774 L26.2756364,48.9387097 C28.3930909,48.300242 30.1396364,46.7842742 30.9981818,44.7220967 L31.284,44.032258 L32.7272727,44.032258 Z M12,28.3064516 L12,20.967742 L19.6363636,20.967742 C23.2701818,20.967742 26.556,19.1236291 28.3636364,16.2175 C29.9890909,18.8300807 32.808,20.5840322 36,20.9121774 L36,28.3064516 C36,28.7048387 35.9792727,29.0979838 35.9378182,29.4858871 C32.3454545,27.3482258 28.2392727,26.2096774 24,26.2096774 C19.7607273,26.2096774 15.6545455,27.3482258 12.0621818,29.4858871 C12.0207273,29.0979838 12,28.7048387 12,28.3064516 L12,28.3064516 Z M12.6130909,31.6193549 C15.9970909,29.4523387 19.9330909,28.3064516 24,28.3064516 C28.0669091,28.3064516 32.0029091,29.4523387 35.3858182,31.6193549 L35.4741818,31.6759678 C33.9709091,36.3958064 29.3967273,39.8387097 24,39.8387097 C18.6032727,39.8387097 14.0290909,36.3958064 12.5258182,31.6759678 L12.6130909,31.6193549 Z M18.5454545,40.8839516 C20.2254545,41.5591129 22.068,41.9354838 24,41.9354838 C25.932,41.9354838 27.7745455,41.5591129 29.4545455,40.8839516 L29.4545455,42.7815322 L28.9712727,43.9431451 C28.1530909,45.9078226 26.2025455,47.1774193 24,47.1774193 C21.7974545,47.1774193 19.8469091,45.9078226 19.0287273,43.9431451 L18.5454545,42.7815322 L18.5454545,40.8839516 Z M35.7305455,2.0967742 L34.0341818,9.43548387 L13.9658182,9.43548387 L12.2694545,2.0967742 L35.7305455,2.0967742 Z M6.54545455,34.5967742 L6.54545455,22.0161291 C6.54545455,17.6045162 8.568,13.514758 12.0392727,10.7417742 C12.1625455,11.2041129 12.5912727,11.532258 13.0909091,11.532258 L34.9090909,11.532258 C35.4087273,11.532258 35.8374545,11.2041129 35.9607273,10.7417742 C39.432,13.514758 41.4545455,17.6045162 41.4545455,22.0161291 L41.4545455,34.5967742 C41.4545455,36.3308064 39.9861818,37.7419355 38.1818182,37.7419355 L34.2098182,37.7419355 C36.6632727,35.2908064 38.1818182,31.9684678 38.1818182,28.3064516 L38.1818182,19.9193549 C38.1818182,19.3395967 37.6941818,18.8709678 37.0909091,18.8709678 C33.6458182,18.8709678 30.6,16.7605645 29.5101818,13.6195967 L29.3978182,13.2966936 C29.2494545,12.8689516 28.8338182,12.5806451 28.3636364,12.5806451 C27.8934545,12.5806451 27.4767273,12.8689516 27.3294545,13.297742 L27.2170909,13.6206451 C26.1272727,16.7605645 23.0814545,18.8709678 19.6363636,18.8709678 L10.9090909,18.8709678 C10.3058182,18.8709678 9.81818182,19.3395967 9.81818182,19.9193549 L9.81818182,28.3064516 C9.81818182,31.9684678 11.3367273,35.2908064 13.7901818,37.7419355 L9.81818182,37.7419355 C8.01381818,37.7419355 6.54545455,36.3308064 6.54545455,34.5967742 Z M16.716,44.032258 L17.0029091,44.7210484 C17.8625455,46.7853226 19.6101818,48.3023387 21.7298182,48.939758 L21.1330909,49.5174193 C19.7050909,50.6821774 17.6509091,50.5637097 16.356,49.2416936 C15.6676364,48.5403226 15.2727273,47.5611291 15.2727273,46.5588709 L15.2727273,44.032258 L16.716,44.032258 Z M2.18181818,56.6129033 C2.18181818,50.3917742 6.90981818,45.2242742 13.0909091,44.2220162 L13.0909091,46.5599193 C13.0909091,48.1136291 13.6865455,49.5771774 14.7676364,50.6811291 C15.8923636,51.8301613 17.3716364,52.4183064 18.8694545,52.4183064 C20.1752727,52.4183064 21.4974545,51.9706451 22.6134545,51.0564516 L22.9090909,50.7691936 L22.9090909,62.9032258 L10.9090909,62.9032258 L10.9090909,57.6612903 L8.72727273,57.6612903 L8.72727273,62.9032258 L2.18181818,62.9032258 L2.18181818,56.6129033 Z M45.8181818,62.9032258 L39.2727273,62.9032258 L39.2727273,57.6612903 L37.0909091,57.6612903 L37.0909091,62.9032258 L25.0909091,62.9032258 L25.0909091,50.7629033 L25.4563636,51.1151613 C26.5309091,51.9937097 27.8225455,52.4256451 29.1087273,52.4256451 C30.6087273,52.4256451 32.1010909,51.8364516 33.2356364,50.6800807 C34.3156364,49.5761291 34.9112727,48.1125807 34.9112727,46.5588709 L34.9112727,44.2220162 C41.0912727,45.2253226 45.8181818,50.3917742 45.8181818,56.6129033 L45.8181818,62.9032258 Z" id="Shape"></path>
            <polygon id="Shape" points="33.8181818 54.5161291 31.6363636 54.5161291 31.6363636 56.6129033 29.4545455 56.6129033 29.4545455 58.7096774 31.6363636 58.7096774 31.6363636 60.8064516 33.8181818 60.8064516 33.8181818 58.7096774 36 58.7096774 36 56.6129033 33.8181818 56.6129033"></polygon>
        </g>
    </g>
</svg>