<?xml version="1.0" encoding="UTF-8"?>
<svg width="80px" height="65px" viewBox="0 0 80 65" version="1.1" xmlns="http://www.w3.org/2000/svg" xmlns:xlink="http://www.w3.org/1999/xlink">
    <!-- Generator: Sketch 47 (45396) - http://www.bohemiancoding.com/sketch -->
    <title>bed-icon</title>
    <desc>Created with Sketch.</desc>
    <defs></defs>
    <g id="Page-1" stroke="none" stroke-width="1" fill="none" fill-rule="evenodd">
        <g id="bed-icon" fill-rule="nonzero" fill="#FFFFFF">
            <path d="M76,21.6666666 C73.6445,21.6666666 72,22.7332422 72,24.2598959 L72,28.9156901 C69.8888333,24.6785026 66.6416667,21.6666666 62.6666667,21.6666666 L25.3333333,21.6666666 C24.5971667,21.6664974 24.0001667,22.2724869 24,23.0201562 C24,23.0203256 24,23.0206641 24,23.0208334 L24,31.1571744 C24.0075,28.9478516 23.1331667,26.7434375 21.4023333,25.1340104 C18.1436667,22.103724 13.0831667,22.3302084 10.0996667,25.6399609 C7.30566667,28.7391406 7.2995,33.4907422 10.0853333,36.5975391 C9.31666667,36.6835287 8.59066667,37.0004037 8,37.5073698 L8,3.2498307 C8,1.42763024 6.2435,0 4,0 C1.7565,0 0,1.42763024 0,3.2498307 L0,61.7501693 C0,63.5723698 1.7565,65 4,65 C6.2435,65 8,63.5723698 8,61.7501693 L8,52.8125 L72,52.8125 L72,62.4067709 C72,63.9334244 73.6445,65 76,65 C78.3555,65 80,63.9334244 80,62.4067709 L80,24.2598959 C80,22.7332422 78.3555,21.6666666 76,21.6666666 Z M5.33333333,61.7501693 C5.319,61.8612109 4.87116667,62.2916666 4,62.2916666 C3.125,62.2916666 2.67966667,61.8612109 2.66666667,61.7501693 L2.66666667,3.2498307 C2.67966667,3.13878906 3.125,2.70833337 4,2.70833337 C4.87116667,2.70833337 5.319,3.13878906 5.33333333,3.2498307 L5.33333333,61.7501693 Z M26.6666667,24.375 L62.6666667,24.375 C67.6953333,24.375 71.5286667,31.9796615 71.9596667,39.2708334 L26.6666667,39.2708334 L26.6666667,24.375 Z M24,31.1598828 L24,37.6869662 C23.4246667,37.119401 22.692,36.7448047 21.9005,36.6134506 C23.2988333,35.0622526 23.9926667,33.109375 24,31.1598828 Z M16,25.7291666 C18.9455,25.7291666 21.3333333,28.1543099 21.3333333,31.1458334 C21.3333333,34.1373568 18.9455,36.5625 16,36.5625 C13.0545,36.5625 10.6666667,34.1373568 10.6666667,31.1458334 C10.6698333,28.1556641 13.0558333,25.7323828 16,25.7291666 Z M72,50.1041666 L8,50.1041666 L8,41.9752734 C8.69383333,41.9197526 9.229,41.331875 9.22916667,40.625 C9.21633333,39.8918881 9.78983333,39.2862369 10.5116667,39.2708334 L21.28,39.2708334 C22.0018333,39.2862369 22.5753333,39.8918881 22.5625,40.625 C22.5623333,41.3726693 23.159,41.9789974 23.8951667,41.9791666 C23.8953333,41.9791666 23.8956667,41.9791666 23.8958333,41.9791666 L72,41.9791666 L72,50.1041666 Z M77.3333333,62.0536719 C76.4718333,62.3710547 75.5281667,62.3710547 74.6666667,62.0536719 L74.6666667,24.6129948 C75.5281667,24.2956119 76.4718333,24.2956119 77.3333333,24.6129948 L77.3333333,62.0536719 Z" id="Shape"></path>
        </g>
    </g>
</svg>