<?xml version="1.0" encoding="UTF-8"?>
<svg width="80px" height="64px" viewBox="0 0 80 64" version="1.1" xmlns="http://www.w3.org/2000/svg" xmlns:xlink="http://www.w3.org/1999/xlink">
    <!-- Generator: Sketch 47 (45396) - http://www.bohemiancoding.com/sketch -->
    <title>slumber</title>
    <desc>Created with Sketch.</desc>
    <defs></defs>
    <g id="Page-1" stroke="none" stroke-width="1" fill="none" fill-rule="evenodd">
        <g id="General-Indicator" transform="translate(-870.000000, -502.000000)" fill-rule="nonzero" fill="#FFFFFF">
            <g id="slumber" transform="translate(870.000000, 486.000000)">
                <path d="M76,37.3333333 C73.6445,37.3333333 72,38.3835 72,39.8866667 L72,44.4708333 C69.8888333,40.2988333 66.6416667,37.3333333 62.6666667,37.3333333 L25.3333333,37.3333333 C24.5971667,37.3331667 24.0001667,37.9298333 24,38.666 C24,38.6661667 24,38.6665 24,38.6666667 L24,46.6778333 C24.0075,44.5025 23.1331667,42.332 21.4023333,40.7473333 C18.1436667,37.7636667 13.0831667,37.9866667 10.0996667,41.2455 C7.30566667,44.297 7.2995,48.9755 10.0853333,52.0345 C9.31666667,52.1191667 8.59066667,52.4311667 8,52.9303333 L8,19.1998333 C8,17.4056667 6.2435,16 4,16 C1.7565,16 0,17.4056667 0,19.1998333 L0,76.8001667 C0,78.5943333 1.7565,80 4,80 C6.2435,80 8,78.5943333 8,76.8001667 L8,68 L72,68 L72,77.4466667 C72,78.9498333 73.6445,80 76,80 C78.3555,80 80,78.9498333 80,77.4466667 L80,39.8866667 C80,38.3835 78.3555,37.3333333 76,37.3333333 Z M5.33333333,76.8001667 C5.319,76.9095 4.87116667,77.3333333 4,77.3333333 C3.125,77.3333333 2.67966667,76.9095 2.66666667,76.8001667 L2.66666667,19.1998333 C2.67966667,19.0905 3.125,18.6666667 4,18.6666667 C4.87116667,18.6666667 5.319,19.0905 5.33333333,19.1998333 L5.33333333,76.8001667 Z M26.6666667,40 L62.6666667,40 C67.6953333,40 71.5286667,47.4876667 71.9596667,54.6666667 L26.6666667,54.6666667 L26.6666667,40 Z M24,46.6805 L24,53.1071667 C23.4246667,52.5483333 22.692,52.1795 21.9005,52.0501667 C23.2988333,50.5228333 23.9926667,48.6 24,46.6805 Z M16,41.3333333 C18.9455,41.3333333 21.3333333,43.7211667 21.3333333,46.6666667 C21.3333333,49.6121667 18.9455,52 16,52 C13.0545,52 10.6666667,49.6121667 10.6666667,46.6666667 C10.6698333,43.7225 13.0558333,41.3365 16,41.3333333 Z M72,65.3333333 L8,65.3333333 L8,57.3295 C8.69383333,57.2748333 9.229,56.696 9.22916667,56 C9.21633333,55.2781667 9.78983333,54.6818333 10.5116667,54.6666667 L21.28,54.6666667 C22.0018333,54.6818333 22.5753333,55.2781667 22.5625,56 C22.5623333,56.7361667 23.159,57.3331667 23.8951667,57.3333333 C23.8953333,57.3333333 23.8956667,57.3333333 23.8958333,57.3333333 L72,57.3333333 L72,65.3333333 Z M77.3333333,77.099 C76.4718333,77.4115 75.5281667,77.4115 74.6666667,77.099 L74.6666667,40.2343333 C75.5281667,39.9218333 76.4718333,39.9218333 77.3333333,40.2343333 L77.3333333,77.099 Z" id="Shape"></path>
            </g>
        </g>
    </g>
</svg>