<?xml version="1.0" encoding="UTF-8"?>
<svg width="47px" height="61px" viewBox="0 0 47 61" version="1.1" xmlns="http://www.w3.org/2000/svg" xmlns:xlink="http://www.w3.org/1999/xlink">
    <!-- Generator: Sketch 47 (45396) - http://www.bohemiancoding.com/sketch -->
    <title>demographic</title>
    <desc>Created with Sketch.</desc>
    <defs></defs>
    <g id="Page-1" stroke="none" stroke-width="1" fill="none" fill-rule="evenodd">
        <g id="General-Indicator" transform="translate(-600.000000, -324.000000)" fill-rule="nonzero" fill="#FFFFFF">
            <g id="demographic" transform="translate(600.000000, 324.000000)">
                <path d="M19.3400179,57.4254238 L12.6537256,57.4254238 C11.6553974,57.4254238 10.8460333,58.2255723 10.8460333,59.2125332 C10.8460333,60.1994941 11.6553974,60.9996426 12.6537256,60.9996426 L34.3460333,60.9996426 C35.3443615,60.9996426 36.1537256,60.1994941 36.1537256,59.2125332 C36.1537256,58.2255723 35.3443615,57.4254238 34.3460333,57.4254238 L27.659741,57.4254238 C29.911041,55.0322461 33.1739256,51.3701016 36.3654667,47.0953359 C43.3497872,37.7411289 46.8911769,29.7122422 46.8911769,23.2320645 C46.8911769,10.4847324 36.4018615,0.0627871094 23.5086769,2.84217094e-14 C23.5027718,2.84217094e-14 23.4967462,2.84217094e-14 23.4909615,2.84217094e-14 C10.5978974,0.0627871094 0.108582051,10.4847324 0.108582051,23.2320645 C0.108582051,29.7123613 3.64997179,37.7411289 10.6342923,47.0953359 C13.8258333,51.3701016 17.0887179,55.0323652 19.3400179,57.4254238 L19.3400179,57.4254238 Z M23.4998795,3.57421875 C34.4056872,3.63164453 43.2757923,12.4484082 43.2757923,23.2320645 C43.2757923,28.8515703 39.8804641,36.3693438 33.4567692,44.9727266 C29.5226282,50.2417207 25.4891846,54.5387656 23.4998795,56.5693984 C21.5105744,54.5387656 17.4771308,50.2418398 13.5429897,44.9727266 C7.11929487,36.3693438 3.72396667,28.8515703 3.72396667,23.2320645 C3.72396667,12.4484082 12.5940718,3.63164453 23.4998795,3.57421875 L23.4998795,3.57421875 Z" id="Shape"></path>
                <path d="M39.7691103,23.2320645 C39.7691103,14.3633555 32.4707333,7.14808008 23.4998795,7.14808008 C14.5290256,7.14808008 7.23064872,14.3633555 7.23064872,23.2320645 C7.23064872,32.1007734 14.5290256,39.3160488 23.4998795,39.3160488 C32.4707333,39.3160488 39.7691103,32.1008926 39.7691103,23.2320645 Z M18.0768026,34.5332676 L18.0768026,33.9548398 C18.0768026,30.9986035 20.5095949,28.5935117 23.4998795,28.5935117 C26.4901641,28.5935117 28.9229564,30.9986035 28.9229564,33.9548398 L28.9229564,34.5332676 C27.2783179,35.3076816 25.4395333,35.7419492 23.4998795,35.7419492 C21.5602256,35.7419492 19.7213205,35.3076816 18.0768026,34.5332676 Z M10.8460333,23.2320645 C10.8460333,16.3341797 16.5225487,10.7222988 23.4998795,10.7222988 C30.4772103,10.7222988 36.1537256,16.3341797 36.1537256,23.2320645 C36.1537256,26.7249102 34.6976897,29.8872598 32.3549205,32.1590332 C31.5118128,28.089666 27.8617205,25.0191738 23.4998795,25.0191738 C19.1380385,25.0191738 15.4879462,28.0895469 14.6448385,32.1590332 C12.3020692,29.8873789 10.8460333,26.7249102 10.8460333,23.2320645 Z" id="Shape"></path>
                <path d="M28.9229564,19.6578457 C28.9229564,16.7016094 26.4901641,14.2965176 23.4998795,14.2965176 C20.5095949,14.2965176 18.0768026,16.7016094 18.0768026,19.6578457 C18.0768026,22.614082 20.5095949,25.0191738 23.4998795,25.0191738 C26.4901641,25.0191738 28.9229564,22.6142012 28.9229564,19.6578457 Z M23.4998795,21.4449551 C22.5031179,21.4449551 21.6921872,20.6432578 21.6921872,19.6578457 C21.6921872,18.6724336 22.5031179,17.8707363 23.4998795,17.8707363 C24.496641,17.8707363 25.3075718,18.6724336 25.3075718,19.6578457 C25.3075718,20.6432578 24.496641,21.4449551 23.4998795,21.4449551 Z" id="Shape"></path>
            </g>
        </g>
    </g>
</svg>