<?xml version="1.0" encoding="UTF-8"?>
<svg width="47px" height="65px" viewBox="0 0 47 65" version="1.1" xmlns="http://www.w3.org/2000/svg" xmlns:xlink="http://www.w3.org/1999/xlink">
    <!-- Generator: Sketch 47 (45396) - http://www.bohemiancoding.com/sketch -->
    <title>demographic-icon</title>
    <desc>Created with Sketch.</desc>
    <defs></defs>
    <g id="Page-1" stroke="none" stroke-width="1" fill="none" fill-rule="evenodd">
        <g id="demographic-icon" fill-rule="nonzero" fill="#FFFFFF">
            <path d="M19.3400179,61.1910254 L12.6537256,61.1910254 C11.6553974,61.1910254 10.8460333,62.0436426 10.8460333,63.0953223 C10.8460333,64.1470019 11.6553974,64.9996192 12.6537256,64.9996192 L34.3460333,64.9996192 C35.3443615,64.9996192 36.1537256,64.1470019 36.1537256,63.0953223 C36.1537256,62.0436426 35.3443615,61.1910254 34.3460333,61.1910254 L27.659741,61.1910254 C29.911041,58.640918 33.1739256,54.7386329 36.3654667,50.1835546 C43.3497872,40.215957 46.8911769,31.660586 46.8911769,24.7554786 C46.8911769,11.1722558 36.4018615,0.0669042969 23.5086769,2.84217094e-14 C23.5027718,2.84217094e-14 23.4967462,2.84217094e-14 23.4909615,2.84217094e-14 C10.5978974,0.0669042969 0.108582051,11.1722558 0.108582051,24.7554786 C0.108582051,31.6607129 3.64997179,40.215957 10.6342923,50.1835546 C13.8258333,54.7386329 17.0887179,58.6410449 19.3400179,61.1910254 L19.3400179,61.1910254 Z M23.4998795,3.80859375 C34.4056872,3.86978515 43.2757923,13.2646973 43.2757923,24.7554786 C43.2757923,30.7434765 39.8804641,38.7542188 33.4567692,47.9217579 C29.5226282,53.5362598 25.4891846,58.1150781 23.4998795,60.2788671 C21.5105744,58.1150781 17.4771308,53.5363867 13.5429897,47.9217579 C7.11929487,38.7542188 3.72396667,30.7434765 3.72396667,24.7554786 C3.72396667,13.2646973 12.5940718,3.86978515 23.4998795,3.80859375 L23.4998795,3.80859375 Z" id="Shape"></path>
            <path d="M39.7691103,24.7554786 C39.7691103,15.3052149 32.4707333,7.61680664 23.4998795,7.61680664 C14.5290256,7.61680664 7.23064872,15.3052149 7.23064872,24.7554786 C7.23064872,34.2057421 14.5290256,41.8941504 23.4998795,41.8941504 C32.4707333,41.8941504 39.7691103,34.2058692 39.7691103,24.7554786 Z M18.0768026,36.7977442 L18.0768026,36.1813867 C18.0768026,33.0312988 20.5095949,30.4684961 23.4998795,30.4684961 C26.4901641,30.4684961 28.9229564,33.0312988 28.9229564,36.1813867 L28.9229564,36.7977442 C27.2783179,37.6229394 25.4395333,38.0856836 23.4998795,38.0856836 C21.5602256,38.0856836 19.7213205,37.6229394 18.0768026,36.7977442 Z M10.8460333,24.7554786 C10.8460333,17.4052735 16.5225487,11.4254004 23.4998795,11.4254004 C30.4772103,11.4254004 36.1537256,17.4052735 36.1537256,24.7554786 C36.1537256,28.4773633 34.6976897,31.8470801 32.3549205,34.2678223 C31.5118128,29.9316113 27.8617205,26.6597754 23.4998795,26.6597754 C19.1380385,26.6597754 15.4879462,29.9314844 14.6448385,34.2678223 C12.3020692,31.847207 10.8460333,28.4773633 10.8460333,24.7554786 Z" id="Shape"></path>
            <path d="M28.9229564,20.9468848 C28.9229564,17.7967969 26.4901641,15.2339942 23.4998795,15.2339942 C20.5095949,15.2339942 18.0768026,17.7967969 18.0768026,20.9468848 C18.0768026,24.0969726 20.5095949,26.6597754 23.4998795,26.6597754 C26.4901641,26.6597754 28.9229564,24.0970996 28.9229564,20.9468848 Z M23.4998795,22.8511817 C22.5031179,22.8511817 21.6921872,21.996914 21.6921872,20.9468848 C21.6921872,19.8968555 22.5031179,19.0425879 23.4998795,19.0425879 C24.496641,19.0425879 25.3075718,19.8968555 25.3075718,20.9468848 C25.3075718,21.996914 24.496641,22.8511817 23.4998795,22.8511817 Z" id="Shape"></path>
        </g>
    </g>
</svg>