<?xml version="1.0" encoding="UTF-8"?>
<svg width="48px" height="68px" viewBox="0 0 48 68" version="1.1" xmlns="http://www.w3.org/2000/svg" xmlns:xlink="http://www.w3.org/1999/xlink">
    <!-- Generator: Sketch 47 (45396) - http://www.bohemiancoding.com/sketch -->
    <title>nurse</title>
    <desc>Created with Sketch.</desc>
    <defs></defs>
    <g id="Page-1" stroke="none" stroke-width="1" fill="none" fill-rule="evenodd">
        <g id="General-Indicator" transform="translate(-599.000000, -496.000000)" fill-rule="nonzero" fill="#FFFFFF">
            <g id="nurse" transform="translate(599.000000, 496.000000)">
                <polygon id="Shape" points="22.9090909 8.77419355 25.0909091 8.77419355 25.0909091 7.12903226 26.7272727 7.12903226 26.7272727 4.93548387 25.0909091 4.93548387 25.0909091 3.29032258 22.9090909 3.29032258 22.9090909 4.93548387 21.2727273 4.93548387 21.2727273 7.12903226 22.9090909 7.12903226"></polygon>
                <path d="M32.7272727,43.8709677 L31.6363636,43.8709677 L31.6363636,41.6774194 L38.1818182,41.6774194 C41.1894545,41.6774194 43.6363636,39.2173548 43.6363636,36.1935484 L43.6363636,23.0322581 C43.6363636,17.3827742 40.9854545,12.1763871 36.4898182,8.87180645 L38.1556364,1.33477419 C38.2265455,1.01012903 38.148,0.671225806 37.9418182,0.410193548 C37.7345455,0.151354839 37.4225455,0 37.0909091,0 L10.9090909,0 C10.5774545,0 10.2654545,0.151354839 10.0581818,0.410193548 C9.852,0.670129032 9.77236364,1.01012903 9.84436364,1.33477419 L11.5101818,8.87180645 C7.01454545,12.1763871 4.36363636,17.3827742 4.36363636,23.0322581 L4.36363636,36.1935484 C4.36363636,39.2173548 6.81054545,41.6774194 9.81818182,41.6774194 L16.3636364,41.6774194 L16.3636364,43.8709677 L15.2727273,43.8709677 C6.85090909,43.8709677 0,50.7587097 0,59.2258065 L0,66.9032258 C0,67.5097419 0.487636364,68 1.09090909,68 L46.9090909,68 C47.5123636,68 48,67.5097419 48,66.9032258 L48,59.2258065 C48,50.7587097 41.1490909,43.8709677 32.7272727,43.8709677 Z M32.7272727,46.0645161 L32.7294545,46.0645161 L32.7294545,48.7077419 C32.7294545,49.7562581 32.3345455,50.7806452 31.6461818,51.5154839 C30.3501818,52.8985161 28.296,53.0213548 26.9367273,51.8653548 L26.2756364,51.1974194 C28.3930909,50.5294839 30.1396364,48.9435484 30.9981818,46.7861935 L31.284,46.0645161 L32.7272727,46.0645161 Z M12,29.6129032 L12,21.9354839 L19.6363636,21.9354839 C23.2701818,21.9354839 26.556,20.0062581 28.3636364,16.966 C29.9890909,19.6991613 32.808,21.5340645 36,21.8773548 L36,29.6129032 C36,30.0296774 35.9792727,30.4409677 35.9378182,30.8467742 C32.3454545,28.6104516 28.2392727,27.4193548 24,27.4193548 C19.7607273,27.4193548 15.6545455,28.6104516 12.0621818,30.8467742 C12.0207273,30.4409677 12,30.0296774 12,29.6129032 L12,29.6129032 Z M12.6130909,33.0787097 C15.9970909,30.8116774 19.9330909,29.6129032 24,29.6129032 C28.0669091,29.6129032 32.0029091,30.8116774 35.3858182,33.0787097 L35.4741818,33.1379355 C33.9709091,38.0756129 29.3967273,41.6774194 24,41.6774194 C18.6032727,41.6774194 14.0290909,38.0756129 12.5258182,33.1379355 L12.6130909,33.0787097 Z M18.5454545,42.7709032 C20.2254545,43.4772258 22.068,43.8709677 24,43.8709677 C25.932,43.8709677 27.7745455,43.4772258 29.4545455,42.7709032 L29.4545455,44.7560645 L28.9712727,45.9712903 C28.1530909,48.0266452 26.2025455,49.3548387 24,49.3548387 C21.7974545,49.3548387 19.8469091,48.0266452 19.0287273,45.9712903 L18.5454545,44.7560645 L18.5454545,42.7709032 Z M35.7305455,2.19354839 L34.0341818,9.87096774 L13.9658182,9.87096774 L12.2694545,2.19354839 L35.7305455,2.19354839 Z M6.54545455,36.1935484 L6.54545455,23.0322581 C6.54545455,18.4170323 8.568,14.1385161 12.0392727,11.2375484 C12.1625455,11.7212258 12.5912727,12.0645161 13.0909091,12.0645161 L34.9090909,12.0645161 C35.4087273,12.0645161 35.8374545,11.7212258 35.9607273,11.2375484 C39.432,14.1385161 41.4545455,18.4170323 41.4545455,23.0322581 L41.4545455,36.1935484 C41.4545455,38.0076129 39.9861818,39.483871 38.1818182,39.483871 L34.2098182,39.483871 C36.6632727,36.9196129 38.1818182,33.4439355 38.1818182,29.6129032 L38.1818182,20.8387097 C38.1818182,20.2321935 37.6941818,19.7419355 37.0909091,19.7419355 C33.6458182,19.7419355 30.6,17.534129 29.5101818,14.2481935 L29.3978182,13.9103871 C29.2494545,13.4629032 28.8338182,13.1612903 28.3636364,13.1612903 C27.8934545,13.1612903 27.4767273,13.4629032 27.3294545,13.9114839 L27.2170909,14.2492903 C26.1272727,17.534129 23.0814545,19.7419355 19.6363636,19.7419355 L10.9090909,19.7419355 C10.3058182,19.7419355 9.81818182,20.2321935 9.81818182,20.8387097 L9.81818182,29.6129032 C9.81818182,33.4439355 11.3367273,36.9196129 13.7901818,39.483871 L9.81818182,39.483871 C8.01381818,39.483871 6.54545455,38.0076129 6.54545455,36.1935484 Z M16.716,46.0645161 L17.0029091,46.7850968 C17.8625455,48.9446452 19.6101818,50.5316774 21.7298182,51.1985161 L21.1330909,51.8028387 C19.7050909,53.0213548 17.6509091,52.8974194 16.356,51.5143871 C15.6676364,50.7806452 15.2727273,49.7562581 15.2727273,48.7077419 L15.2727273,46.0645161 L16.716,46.0645161 Z M2.18181818,59.2258065 C2.18181818,52.7175484 6.90981818,47.3115484 13.0909091,46.2630323 L13.0909091,48.7088387 C13.0909091,50.3342581 13.6865455,51.8653548 14.7676364,53.0202581 C15.8923636,54.2223226 17.3716364,54.8376129 18.8694545,54.8376129 C20.1752727,54.8376129 21.4974545,54.3692903 22.6134545,53.4129032 L22.9090909,53.1123871 L22.9090909,65.8064516 L10.9090909,65.8064516 L10.9090909,60.3225806 L8.72727273,60.3225806 L8.72727273,65.8064516 L2.18181818,65.8064516 L2.18181818,59.2258065 Z M45.8181818,65.8064516 L39.2727273,65.8064516 L39.2727273,60.3225806 L37.0909091,60.3225806 L37.0909091,65.8064516 L25.0909091,65.8064516 L25.0909091,53.1058065 L25.4563636,53.4743226 C26.5309091,54.3934194 27.8225455,54.8452903 29.1087273,54.8452903 C30.6087273,54.8452903 32.1010909,54.2289032 33.2356364,53.0191613 C34.3156364,51.8642581 34.9112727,50.3331613 34.9112727,48.7077419 L34.9112727,46.2630323 C41.0912727,47.3126452 45.8181818,52.7175484 45.8181818,59.2258065 L45.8181818,65.8064516 Z" id="Shape"></path>
                <polygon id="Shape" points="33.8181818 57.0322581 31.6363636 57.0322581 31.6363636 59.2258065 29.4545455 59.2258065 29.4545455 61.4193548 31.6363636 61.4193548 31.6363636 63.6129032 33.8181818 63.6129032 33.8181818 61.4193548 36 61.4193548 36 59.2258065 33.8181818 59.2258065"></polygon>
            </g>
        </g>
    </g>
</svg>