<?xml version="1.0" encoding="UTF-8"?>
<svg width="70px" height="70px" viewBox="0 0 70 70" version="1.1" xmlns="http://www.w3.org/2000/svg" xmlns:xlink="http://www.w3.org/1999/xlink">
    <!-- Generator: Sketch 47 (45396) - http://www.bohemiancoding.com/sketch -->
    <title>patient</title>
    <desc>Created with Sketch.</desc>
    <defs></defs>
    <g id="Page-1" stroke="none" stroke-width="1" fill="none" fill-rule="evenodd">
        <g id="General-Indicator" transform="translate(-867.000000, -315.000000)" fill-rule="nonzero" fill="#FFFFFF">
            <g id="patient" transform="translate(867.000000, 315.000000)">
                <polygon id="Shape" points="36.1290323 4.51612903 33.8709677 4.51612903 33.8709677 6.77419355 31.6129032 6.77419355 31.6129032 9.03225806 33.8709677 9.03225806 33.8709677 11.2903226 36.1290323 11.2903226 36.1290323 9.03225806 38.3870968 9.03225806 38.3870968 6.77419355 36.1290323 6.77419355"></polygon>
                <path d="M38.3870968,22.5806452 L38.3870968,18.0645161 L40.6451613,18.0645161 C41.8905148,18.0645161 42.9032258,17.0518051 42.9032258,15.8064516 L42.9032258,14.6774194 L49.0732107,14.6774194 L52.2348318,19.4184728 L56.538716,7.5823777 L59.0944745,13.5483871 L70,13.5483871 L70,11.2903226 L60.5829449,11.2903226 L56.3656124,1.44988036 L51.6372386,14.452495 L50.281628,12.4193548 L42.9032258,12.4193548 L42.9032258,2.25806452 C42.9032258,1.01271103 41.8905148,0 40.6451613,0 L29.3548387,0 C28.1094852,0 27.0967742,1.01271103 27.0967742,2.25806452 L27.0967742,7.90322581 L17.3202809,7.90322581 L14.7634199,13.8692352 L10.4606383,2.03314012 L7.29901714,6.77419355 L0,6.77419355 L0,9.03225806 L8.50743448,9.03225806 L9.86194238,6.99911794 L14.5903162,20.0017325 L18.8087513,10.1612903 L27.0967742,10.1612903 L27.0967742,15.8064516 C27.0967742,17.0518051 28.1094852,18.0645161 29.3548387,18.0645161 L31.6129032,18.0645161 L31.6129032,22.5806452 L33.8709677,22.5806452 L33.8709677,29.3548387 L28.2258065,29.3548387 C26.3073337,29.3548387 24.387207,29.8074439 22.6721586,30.665795 L21.8887821,31.0572077 C21.1671497,28.7710276 19.0513169,27.0967742 16.5291867,27.0967742 L12.4193548,27.0967742 C11.1436808,27.0967742 9.97826361,27.5383537 9.03225806,28.2550245 L9.03225806,23.7096774 C9.03225806,21.8424741 7.51236458,20.3225806 5.64516129,20.3225806 C3.777958,20.3225806 2.25806452,21.8424741 2.25806452,23.7096774 L2.25806452,40.6451613 C1.01271103,40.6451613 0,41.6578723 0,42.9032258 L0,45.1612903 C0,46.4066438 1.01271103,47.4193548 2.25806452,47.4193548 L5.64516129,47.4193548 L5.64516129,59.8513893 C4.23056319,60.915921 3.38709677,62.5730847 3.38709677,64.3548387 C3.38709677,67.4673955 5.91970129,70 9.03225806,70 C12.1448148,70 14.6774194,67.4673955 14.6774194,64.3548387 C14.6774194,62.5741872 13.8251324,60.9032416 12.4193548,59.8442225 L12.4193548,47.4193548 L57.5806452,47.4193548 L57.5806452,59.8442225 C56.1748676,60.902139 55.3225806,62.5741872 55.3225806,64.3548387 C55.3225806,67.4673955 57.8551852,70 60.9677419,70 C64.0802987,70 66.6129032,67.4673955 66.6129032,64.3548387 C66.6129032,62.5741872 65.7606162,60.9032416 64.3548387,59.8442225 L64.3548387,47.4193548 L67.7419355,47.4193548 C68.987289,47.4193548 70,46.4066438 70,45.1612903 L70,42.9032258 C70,41.6578723 68.987289,40.6451613 67.7419355,40.6451613 L67.6846018,40.6451613 C67.1118164,34.3246756 61.7897083,29.3548387 55.3225806,29.3548387 L36.1290323,29.3548387 L36.1290323,22.5806452 L38.3870968,22.5806452 Z M12.4193548,29.3548387 L16.5291867,29.3548387 C18.3963898,29.3548387 19.9162834,30.8747322 19.9162834,32.7419355 C19.9162834,34.6091388 18.3963898,36.1290323 16.5291867,36.1290323 L12.4193548,36.1290323 C10.5521516,36.1290323 9.03225806,34.6091388 9.03225806,32.7419355 C9.03225806,30.8747322 10.5521516,29.3548387 12.4193548,29.3548387 Z M16.9354839,38.3870968 C18.4052104,38.3870968 19.6472562,39.334205 20.1147461,40.6451613 L9.24009258,40.6451613 C9.7075825,39.334205 10.9496283,38.3870968 12.4193548,38.3870968 L16.9354839,38.3870968 Z M9.03225806,37.2288464 C9.04493766,37.2387695 9.05486073,37.249244 9.06698907,37.2580645 C9.05486073,37.2668851 9.04493766,37.2773595 9.03225806,37.2872826 L9.03225806,37.2288464 Z M4.51612903,23.7096774 C4.51612903,23.0878276 5.02220899,22.5806452 5.64516129,22.5806452 C6.26811359,22.5806452 6.77419355,23.0878276 6.77419355,23.7096774 L6.77419355,40.6451613 L4.51612903,40.6451613 L4.51612903,23.7096774 Z M9.03225806,67.7419355 C7.16505478,67.7419355 5.64516129,66.222042 5.64516129,64.3548387 C5.64516129,63.9661826 5.73336694,63.5973727 5.85850873,63.2417937 C6.32930629,64.5444808 7.56804435,65.483871 9.03225806,65.483871 C10.4953693,65.483871 11.7341072,64.5455833 12.2060074,63.2428963 C12.3311492,63.5984753 12.4193548,63.9678364 12.4193548,64.3548387 C12.4193548,66.222042 10.8994614,67.7419355 9.03225806,67.7419355 L9.03225806,67.7419355 Z M10.1612903,62.0967742 C10.1612903,62.718624 9.65521036,63.2258065 9.03225806,63.2258065 C8.40930577,63.2258065 7.90322581,62.718624 7.90322581,62.0967742 L7.90322581,47.4193548 L10.1612903,47.4193548 L10.1612903,62.0967742 Z M60.9677419,67.7419355 C59.1005386,67.7419355 57.5806452,66.222042 57.5806452,64.3548387 C57.5806452,63.9678364 57.6688508,63.5984753 57.7939926,63.2428963 C58.2658928,64.5455833 59.5046307,65.483871 60.9677419,65.483871 C62.4308531,65.483871 63.6695911,64.5455833 64.1414913,63.2428963 C64.2666331,63.5984753 64.3548387,63.9678364 64.3548387,64.3548387 C64.3548387,66.222042 62.8349452,67.7419355 60.9677419,67.7419355 L60.9677419,67.7419355 Z M62.0967742,62.0967742 C62.0967742,62.718624 61.5906942,63.2258065 60.9677419,63.2258065 C60.3447896,63.2258065 59.8387097,62.718624 59.8387097,62.0967742 L59.8387097,47.4193548 L62.0967742,47.4193548 L62.0967742,62.0967742 Z M65.4171655,40.6451613 L60.9677419,40.6451613 L60.9677419,42.9032258 L67.7419355,42.9032258 L67.7419355,45.1612903 L2.25806452,45.1612903 L2.25806452,42.9032258 L58.7096774,42.9032258 L58.7096774,40.6451613 L22.4665291,40.6451613 C22.1660786,39.1715758 21.2900864,37.9052735 20.0833229,37.091025 C21.1671497,36.2034558 21.9075259,34.9321919 22.0999244,33.4767987 L23.6826645,32.6857043 C25.084583,31.9844694 26.6551947,31.6129032 28.2258065,31.6129032 L55.3225806,31.6129032 C60.5443548,31.6129032 64.8537519,35.5722342 65.4171655,40.6451613 Z M29.3548387,2.25806452 L40.6451613,2.25806452 L40.6462638,15.8064516 L29.3548387,15.8064516 L29.3548387,2.25806452 Z M36.1290323,18.0645161 L36.1290323,20.3225806 L33.8709677,20.3225806 L33.8709677,18.0645161 L36.1290323,18.0645161 Z" id="Shape"></path>
            </g>
        </g>
    </g>
</svg>